<svg id="Layer_1" data-name="Layer 1" xmlns="http://www.w3.org/2000/svg" xmlns:xlink="http://www.w3.org/1999/xlink" viewBox="0 0 1600 900"><defs><style>.cls-1{fill:url(#radial-gradient);}.cls-2{fill:url(#radial-gradient-2);}.cls-3{fill:url(#linear-gradient);}</style><radialGradient id="radial-gradient" cx="494.19" cy="845.56" r="0.5" gradientTransform="matrix(1600, 0, 0, -900, -789906, 761454)" gradientUnits="userSpaceOnUse"><stop offset="0" stop-color="#0b0d12"/><stop offset="1" stop-color="#141821"/></radialGradient><radialGradient id="radial-gradient-2" cx="781.67" cy="966.65" r="1166.31" gradientTransform="translate(1184.17 1397.16) rotate(161.68)" gradientUnits="userSpaceOnUse"><stop offset="0" stop-color="#242b38"/><stop offset="1" stop-color="#1b202c"/></radialGradient><linearGradient id="linear-gradient" x1="1401.04" y1="70.95" x2="302.37" y2="873.61" gradientTransform="matrix(1, 0, 0, 1, 0, 0)" xlink:href="#radial-gradient-2"/></defs><rect class="cls-1" width="1600" height="900"/><path class="cls-2" d="M1778.64,885c-3.86-17-443.95,22.12-1118.43-47.15-235.75-24.21-467.39-58.3-494.12-145.51C136.58,596.07,381.88,516.65,352.43,427,320.2,328.81-14,300.55-227.84,300.59c-686,.12-1282.89,255.55-1254.52,324.59,27.8,67.68,646-71.88,729.43,61.24,74.79,119.31-376.1,304.07-324.38,419.79C-955.79,1378.11,1788.36,928,1778.64,885Z"/><path class="cls-3" d="M200,143.32c63.44,29,154.2,82.84,205.33,181.33,63.9,123.09,3.16,195.1,40,290.67C535,847.92,1060.35,850.59,1464,852.65c346.7,1.77,412.76-37.75,442.66-58.67C2176.8,605,2201.42,41.39,2000-214,1728.18-558.68,912.77-509.38,0,2"/></svg>